# xmcd CD database file
#
# Track frame offsets:
#	150
#	23082
#	50365
#	72265
#	91382
#	105600
#	129247
#	152390
#	184292
#	209095
#	229205
#	243665
#	260657
#	274707
#	299607
#
# Disc length: 4207 seconds
#
# Revision: 0
# Processed by: cddbd v1.5.1PL0 Copyright (c) Steve Scherf et al.
# Submitted via: CDex 1.51
#
DISCID=de106d0f
DTITLE=John Kaizan Neptune - Shakuhachi Mellow Jazz
DYEAR=1999
DGENRE=Jazz
TTITLE0=Blue Bamboo
TTITLE1=In A Sentimental Mood
TTITLE2=Manha De Carnival
TTITLE3=Amazing Grace
TTITLE4=Don't Get Around Much Anymore
TTITLE5=Safe And Sound
TTITLE6=Georgia On My Mind
TTITLE7=Summertime
TTITLE8=Willow Weep For Me
TTITLE9=Tenderly
TTITLE10=Shadow Of Your Smile
TTITLE11=Autumn Leaves
TTITLE12=Skylark
TTITLE13=Slow Boat
TTITLE14=Over The Rainbow
EXTD=YEAR: 1999
EXTT0=
EXTT1=
EXTT2=
EXTT3=
EXTT4=
EXTT5=
EXTT6=
EXTT7=
EXTT8=
EXTT9=
EXTT10=
EXTT11=
EXTT12=
EXTT13=
EXTT14=
PLAYORDER=
